# AST/ASF file generated using VICON BodyLanguage
# -----------------------------------------------
:version 1.10
:name VICON
:units
  mass 1.0
  length 0.45
  angle deg
:documentation
   .ast/.asf automatically generated from VICON data using
   VICON BodyBuilder and BodyLanguage model FoxedUp or BRILLIANT.MOD
:root
   order TX TY TZ RX RY RZ
   axis XYZ
   position 0 0 0  
   orientation 0 0 0 
:bonedata
  begin
     id 1 
     name lhipjoint
     direction 0.602128 -0.715006 0.355257 
     length 2.21237 
     axis 0 0 0  XYZ
  end
  begin
     id 2 
     name lfemur
     direction 0.34202 -0.939693 0  
     length 6.71649  
     axis 0 0 20  XYZ
    dof rx ry rz
    limits (-160.0 20.0)
           (-70.0 70.0)
           (-60.0 70.0)
  end
  begin
     id 3 
     name ltibia
     direction 0.34202 -0.939693 0   
     length 6.97123   
     axis 0 0 20   XYZ
    dof rx
    limits (-10.0 170.0)
  end
  begin
     id 4 
     name lfoot
     direction 0.0655697 -0.180151 0.981451   
     length 1.80924   
     axis -90 7.62852e-016 20   XYZ
    dof rx rz
    limits (-45.0 90.0)
           (-70.0 20.0)
  end
  begin
     id 5 
     name ltoes
     direction 1.53545e-011 -4.21827e-011 1   
     length 0.916331   
     axis -90 7.62852e-016 20   XYZ
    dof rx
    limits (-90.0 20.0)
  end
  begin
     id 6 
     name rhipjoint
     direction -0.625414 -0.698792 0.347201   
     length 2.2637  
     axis 0 0 0  XYZ 
  end
  begin
     id 7 
     name rfemur
     direction -0.34202 -0.939693 0   
     length 7.07595   
     axis 0 0 -20   XYZ
    dof rx ry rz
    limits (-160.0 20.0)
           (-70.0 70.0)
           (-70.0 60.0)
  end
  begin
     id 8 
     name rtibia
     direction -0.34202 -0.939693 0   
     length 7.22924   
     axis 0 0 -20   XYZ
    dof rx
    limits (-10.0 170.0)
 end
 begin
     id 9 
     name rfoot
     direction -0.0766747 -0.210662 0.974547   
     length 1.98482  
     axis -90 -7.62852e-016 -20   XYZ
    dof rx rz
    limits (-45.0 90.0)
           (-20.0 70.0)
  end
  begin
     id 10 
     name rtoes
     direction -1.53532e-011 -4.21867e-011 1   
     length 0.999842   
     axis -90 -7.62852e-016 -20   XYZ
    dof rx
    limits (-90.0 20.0)
  end
  begin
     id 11 
     name lowerback
     direction -0.0224668 0.997354 -0.0691422   
     length 2.09945   
     axis 0 0 0   XYZ
    dof rx ry rz
    limits (-20.0 45.0)
           (-30.0 30.0)
           (-30.0 30.0)
  end
  begin
     id 12 
     name upperback
     direction 0.0134698 0.998451 -0.0539888   
     length 2.09758   
     axis 0 0 0   XYZ
    dof rx ry rz
    limits (-20.0 45.0)
           (-30.0 30.0)
           (-30.0 30.0)
  end
  begin
     id 13 
     name thorax
     direction 0.0241905 0.99948 -0.0213333   
     length 2.10428   
     axis 0 0 0   XYZ
    dof rx ry rz
    limits (-20.0 45.0)
           (-30.0 30.0)
           (-30.0 30.0)
  end
  begin
     id 14 
     name lowerneck
     direction -0.00866847 0.995978 0.0891737   
     length 1.3959   
     axis 0 0 0   XYZ
    dof rx ry rz
    limits (-20.0 45.0)
           (-30.0 30.0)
           (-30.0 30.0)
  end
  begin
     id 15 
     name upperneck
     direction 0.0680679 0.992203 0.104404   
     length 1.39452   
     axis 0 0 0   XYZ
    dof rx ry rz
    limits (-20.0 45.0)
           (-30.0 30.0)
           (-30.0 30.0)
  end
  begin
     id 16
     name head
     direction 0.0242216 0.999358 0.0264054  
     length 1.40433  
     axis 0 0 0   XYZ
    dof rx ry rz
    limits (-20.0 45.0)
           (-30.0 30.0)
           (-30.0 30.0)
  end
  begin
     id 17 
     name lclavicle
     direction 0.929368 0.362991 -0.0671771  
     length 3.04887  
     axis 0 0 0   XYZ
    dof ry rz
    limits (-20.0 10.0)
           (0.0 20.0)
  end
  begin
     id 18 
     name lhumerus
     direction 1 -4.48967e-011 -7.13741e-028   
     length 4.77195   
     axis -180 -30 -90   XYZ
    dof rx ry rz
    limits (-60.0 90.0)
           (-90.0 90.0)
           (-90.0 90.0)
  end
  begin
     id 19
     name lradius
     direction 1 -4.48977e-011 3.60404e-027   
     length 2.98444   
     axis -180 -30 -90   XYZ
    dof rx
    limits (-10.0 170.0)
  end
  begin
     id 20
     name lwrist
     direction 1 -4.48997e-011 7.54877e-027   
     length 1.49222   
     axis -7.18178e-015 90 90   XYZ
    dof ry
    limits (-180.0 0.0)
 end
  begin
     id 21 
     name lhand
     direction 1 -4.489e-011 1.51105e-026   
     length 0.992285   
     axis -9.63605e-015 90 90   XYZ
    dof rx rz
    limits (-90.0 90.0)
           (-45.0 45.0)
  end
  begin
     id 22 
     name lfingers
     direction 1 -4.48998e-011 3.01948e-026   
     length 0.800006   
     axis -1.92718e-014 90 90   XYZ
    dof rx
    limits (0.0 90.0)
  end
  begin
     id 23
     name lthumb
     direction 0.707107 -6.34881e-011 0.707107   
     length 1.14865   
     axis -90 45 -3.53137e-014   XYZ
    dof rx rz
    limits (-45.0 45.0)
           (-45.0 45.0)
  end
  begin
     id 24 
     name rclavicle
     direction -0.945672 0.324529 0.0196374   
     length 3.4236  
     axis 0 0 0   XYZ 
    dof ry rz
    limits (-10.0 20.0)
           (-20.0 0.0)
  end
  begin
     id 25 
     name rhumerus
     direction -1 -4.4896e-011 1.02757e-029  
     length 4.62052   
     axis -180 30 90   XYZ
    dof rx ry rz
    limits (-90.0 60.0)
           (-90.0 90.0)
           (-90.0 90.0)
  end
  begin
     id 26 
     name rradius
     direction -1 -4.48982e-011 3.85962e-027   
     length 2.95332   
     axis -180 30 90   XYZ
    dof rx
    limits (-10.0 170.0)
  end
  begin
     id 27 
     name rwrist
     direction -1 -4.48961e-011 7.55118e-027   
     length 1.47666   
     axis -7.18178e-015 -90 -90   XYZ
    dof ry
    limits (-180.0 0.0)
  end
  begin
     id 28
     name rhand
     direction -1 -4.48984e-011 1.50994e-026   
     length 0.990956   
     axis -9.63605e-015 -90 -90   XYZ
    dof rx rz
    limits (-90.0 90.0)
           (-45.0 45.0)
  end
  begin
     id 29
     name rfingers
     direction -1 -4.4892e-011 3.02158e-026   
     length 0.798934   
     axis -1.92718e-014 -90 -90   XYZ
    dof rx
    limits (0.0 90.0)
  end
  begin
     id 30
     name rthumb
     direction -0.707107 -6.34916e-011 0.707107   
     length 1.14711   
     axis -90 -45 3.53137e-014   XYZ
    dof rx rz
    limits (-45.0 45.0)
           (-45.0 45.0)
  end
:hierarchy
  begin
    root lhipjoint rhipjoint lowerback
    lhipjoint lfemur
    lfemur ltibia
    ltibia lfoot
    lfoot ltoes
    rhipjoint rfemur
    rfemur rtibia
    rtibia rfoot
    rfoot rtoes
    lowerback upperback
    upperback thorax
    thorax lowerneck lclavicle rclavicle
    lowerneck upperneck
    upperneck head
    lclavicle lhumerus
    lhumerus lradius
    lradius lwrist
    lwrist lhand lthumb
    lhand lfingers
    rclavicle rhumerus
    rhumerus rradius
    rradius rwrist
    rwrist rhand rthumb
    rhand rfingers
  end

#!OML:ASF H:\ManfredObstacles\Project 1\Capture day 1\Session 1\Male.ASF
:FULLY-SPECIFIED
:DEGREES
544
root -1.77379 9.02961 -2.21472 -125.258 -3.05579 -190.756
lowerback 23.4684 -0.0715863 -2.82723
upperback 10.3121 -2.56171 -1.19739
thorax -1.72045 -1.98711 0.961283
lowerneck 4.01983 -2.66648 -1.84837
upperneck -28.0253 -2.37061 14.1121
head -9.18368 -3.54974 5.66254
rclavicle -8.74653e-015 3.42904e-015
rhumerus 33.2304 2.34083 -87.4816
rradius 33.6476
rwrist 42.4355
rhand -62.3403 15.407
rfingers 7.12502
rthumb -34.3769 -11.2923
lclavicle -8.74653e-015 3.42904e-015
lhumerus 24.3885 -8.17683 77.4562
lradius 41.279
lwrist -12.4486
lhand -23.2427 -3.14829
lfingers 7.12502
lthumb 3.20869 26.8073
rfemur -72.3889 -13.6802 22.221
rtibia 128.347
rfoot 153.408 -163.602
rtoes 24.1599
lfemur -72.342 -10.6222 -12.9006
ltibia 117.292
lfoot 9.82376 -14.3899
ltoes 32.3505
545
root -1.68143 9.04057 -2.21315 -125.154 -3.59604 -191.005
lowerback 23.519 -0.193261 -2.67026
upperback 10.2842 -2.68473 -1.39137
thorax -1.78782 -2.03266 0.697148
lowerneck 4.13661 -2.783 -1.69899
upperneck -27.9305 -2.45279 14.2726
head -9.16535 -3.60418 5.6946
rclavicle 1.19271e-014 -5.96354e-015
rhumerus 33.1094 2.23489 -88.0208
rradius 33.451
rwrist 42.3678
rhand -62.5146 15.2392
rfingers 7.12502
rthumb -34.5423 -11.4225
lclavicle 1.19271e-014 -5.96354e-015
lhumerus 24.8299 -8.27868 76.8855
lradius 40.8913
lwrist -12.3529
lhand -23.4012 -3.22056
lfingers 7.12502
lthumb 3.05568 26.7373
rfemur -72.4595 -13.8018 23.1964
rtibia 127.913
rfoot 154.211 -163.432
rtoes 26.281
lfemur -73.4232 -10.2695 -11.7043
ltibia 117.348
lfoot 13.0579 -14.9677
ltoes 31.7791
546
root -1.58201 9.0537 -2.21643 -125.427 -3.87578 -191.051
lowerback 23.9448 -0.110773 -2.7737
upperback 10.3297 -2.65387 -1.59312
thorax -1.95263 -2.0238 0.546922
lowerneck 4.59589 -2.79805 -1.71382
upperneck -28.2537 -2.3696 14.5389
head -9.37262 -3.62054 5.83153
rclavicle -3.10104e-014 -9.29318e-015
rhumerus 33.0186 2.11233 -88.5824
rradius 33.2489
rwrist 42.2331
rhand -62.8492 15.5046
rfingers 7.12502
rthumb -34.8598 -11.0841
lclavicle -3.10104e-014 -9.29318e-015
lhumerus 25.2797 -8.45573 76.1837
lradius 40.5329
lwrist -12.1356
lhand -23.4057 -3.39328
lfingers 7.12502
lthumb 3.05132 26.5646
rfemur -71.9536 -13.4053 23.9304
rtibia 127.442
rfoot 153.863 -164.332
rtoes 23.3089
lfemur -74.1084 -9.37233 -10.7954
ltibia 117.74
lfoot 15.4903 -15.6208
ltoes 32.6667
547
root -1.50003 9.05644 -2.18703 -125.08 -4.05176 -191.538
lowerback 23.7238 -0.172472 -2.99273
upperback 10.2636 -2.75771 -1.82066
thorax -1.91748 -2.06723 0.446314
lowerneck 4.58712 -2.87784 -1.57776
upperneck -28.1667 -2.45363 14.5237
head -9.33564 -3.65619 5.79889
rclavicle -4.77083e-015 -1.31695e-014
rhumerus 32.9524 1.96503 -89.0344
rradius 33.0779
rwrist 42.0568
rhand -63.3136 16.1954
rfingers 7.12502
rthumb -35.3004 -10.29
lclavicle -4.77083e-015 -1.31695e-014
lhumerus 25.7864 -8.77513 75.4358
lradius 40.1557
lwrist -11.961
lhand -23.3461 -3.46388
lfingers 7.12502
lthumb 3.10891 26.4932
rfemur -72.6684 -13.667 24.2719
rtibia 127.469
rfoot 154.18 -164.278
rtoes 24.4837
lfemur -76.2004 -8.64438 -10.3204
ltibia 118.821
lfoot 17.5861 -15.9324
ltoes 32.03
548
root -1.41613 9.08065 -2.16857 -125.285 -4.23551 -192.115
lowerback 24.2083 -0.179276 -3.24187
upperback 10.3026 -2.88448 -2.01524
thorax -2.10704 -2.14094 0.427279
lowerneck 4.68968 -2.94946 -1.60091
upperneck -28.2187 -2.51583 14.6097
head -9.36553 -3.69031 5.84551
rclavicle 2.78299e-014 -5.76476e-015
rhumerus 32.9773 1.76487 -89.4086
rradius 32.972
rwrist 41.8855
rhand -63.6043 16.6716
rfingers 7.12502
rthumb -35.576 -9.74798
lclavicle 2.78299e-014 -5.76476e-015
lhumerus 26.415 -9.31332 74.4868
lradius 39.8019
lwrist -11.6134
lhand -23.2621 -3.33316
lfingers 7.12502
lthumb 3.19002 26.6227
rfemur -72.5013 -14.1103 24.4275
rtibia 127.349
rfoot 154.109 -164.557
rtoes 22.3719
lfemur -77.7192 -7.85764 -10.1312
ltibia 120.18
lfoot 19.1338 -16.3961
ltoes 27.8279
549
root -1.34145 9.09625 -2.13713 -125.318 -4.48661 -192.771
lowerback 24.341 -0.245368 -3.39243
upperback 10.3818 -3.04169 -2.20936
thorax -2.08453 -2.22745 0.345577
lowerneck 4.78073 -3.02812 -1.53954
upperneck -28.2974 -2.5949 14.6116
head -9.40561 -3.73346 5.84996
rclavicle -1.51076e-014 -1.23743e-014
rhumerus 33.1503 1.47259 -89.7561
rradius 32.9104
rwrist 41.8409
rhand -63.6502 16.5857
rfingers 7.12502
rthumb -35.6195 -9.8234
lclavicle -1.51076e-014 -1.23743e-014
lhumerus 27.0445 -9.99481 73.4407
lradius 39.7425
lwrist -11.141
lhand -23.0065 -2.95074
lfingers 7.12502
lthumb 3.43684 27.0013
rfemur -72.6699 -14.6647 24.5748
rtibia 127.383
rfoot 153.994 -164.625
rtoes 22.3593
lfemur -80.0288 -6.83335 -10.1109
ltibia 122.16
lfoot 18.8373 -16.934
ltoes 6.82397
550
root -1.26774 9.11697 -2.11412 -125.471 -4.88213 -193.545
lowerback 24.4148 -0.337861 -3.50794
upperback 10.563 -3.23445 -2.33434
thorax -1.91818 -2.34158 0.320577
lowerneck 4.85332 -3.1255 -1.36955
upperneck -28.307 -2.70781 14.5004
head -9.41994 -3.78138 5.78968
rclavicle -5.80451e-014 -1.42628e-014
rhumerus 33.4786 1.15959 -89.9805
rradius 32.719
rwrist 41.7735
rhand -63.6608 16.5363
rfingers 7.12502
rthumb -35.6295 -9.87034
lclavicle -5.80451e-014 -1.42628e-014
lhumerus 27.7546 -10.7189 72.3945
lradius 39.8341
lwrist -10.6013
lhand -22.7029 -2.39861
lfingers 7.12502
lthumb 3.73004 27.5485
rfemur -72.6135 -15.4005 24.6302
rtibia 127.419
rfoot 154.245 -164.472
rtoes 22.3975
lfemur -82.519 -5.89813 -10.2545
ltibia 124.449
lfoot 16.4423 -17.5735
ltoes 17.3055
551
root -1.19898 9.14242 -2.09322 -126.067 -5.28485 -194.287
lowerback 24.9011 -0.347882 -3.66189
upperback 10.8496 -3.39059 -2.40306
thorax -1.82967 -2.45534 0.38206
lowerneck 4.89677 -3.23048 -1.18586
upperneck -28.2229 -2.82858 14.3944
head -9.39475 -3.82485 5.7202
rclavicle -7.95139e-015 -6.01324e-015
rhumerus 33.9433 0.737367 -90.1946
rradius 32.3545
rwrist 41.6207
rhand -63.7042 17.1808
rfingers 7.12502
rthumb -35.6707 -9.21599
lclavicle -7.95139e-015 -6.01324e-015
lhumerus 28.6178 -11.409 71.427
lradius 39.7334
lwrist -10.2501
lhand -22.4516 -1.77872
lfingers 7.12502
lthumb 3.97266 28.164
rfemur -71.9938 -16.3026 24.5109
rtibia 127.428
rfoot 154.142 -164.525
rtoes 20.98
lfemur -84.5869 -4.83455 -10.7036
ltibia 126.854
lfoot 13.4823 -17.8177
ltoes 37.4341
552
root -1.14247 9.16101 -2.04891 -126.543 -5.55594 -194.983
lowerback 25.1789 -0.3103 -3.8958
upperback 11.1139 -3.48122 -2.4617
thorax -1.66001 -2.53764 0.474656
lowerneck 4.98051 -3.33874 -0.99661
upperneck -28.1654 -2.95039 14.2835
head -9.3877 -3.87096 5.65217
rclavicle -1.51076e-014 -2.73826e-014
rhumerus 34.5205 0.156925 -90.467
rradius 31.8775
rwrist 41.5526
rhand -63.7317 18.0122
rfingers 7.12502
rthumb -35.6967 -8.37823
lclavicle -1.51076e-014 -2.73826e-014
lhumerus 29.4871 -12.069 70.6341
lradius 39.5468
lwrist -10.1165
lhand -21.9269 -0.961169
lfingers 7.12502
lthumb 4.47936 28.9715
rfemur -71.8589 -17.2493 24.343
rtibia 127.581
rfoot 154.261 -164.58
rtoes 18.3517
lfemur -87.2958 -3.44609 -11.4401
ltibia 129.411
lfoot 9.85686 -17.6833
ltoes 34.9789
553
root -1.08896 9.18336 -2.00606 -127.013 -5.95327 -195.514
lowerback 25.4387 -0.238121 -4.02248
upperback 11.3542 -3.48428 -2.40485
thorax -1.50733 -2.5717 0.608823
lowerneck 5.10175 -3.49383 -0.726043
upperneck -28.1684 -3.13762 14.1011
head -9.40877 -3.95212 5.55581
rclavicle 1.11319e-014 9.74045e-015
rhumerus 35.1218 -0.478615 -90.6144
rradius 31.3511
rwrist 41.7011
rhand -63.7689 17.9993
rfingers 7.12502
rthumb -35.7319 -8.38266
lclavicle 1.11319e-014 9.74045e-015
lhumerus 30.405 -12.8266 69.9295
lradius 39.3461
lwrist -9.98969
lhand -21.451 -0.270405
lfingers 7.12502
lthumb 4.93884 29.652
rfemur -71.6631 -17.9843 24.4873
rtibia 127.664
rfoot 154.604 -164.473
rtoes 19.7675
lfemur -90.3226 -1.72892 -12.1467
ltibia 131.816
lfoot 6.34398 -17.5845
ltoes 33.1468
554
root -1.04686 9.20757 -1.96072 -127.473 -6.68094 -195.66
lowerback 25.6432 -0.230474 -3.63597
upperback 11.5721 -3.42387 -2.23896
thorax -1.37499 -2.55088 0.553159
lowerneck 5.32523 -3.64715 -0.433623
upperneck -28.2863 -3.30922 13.9245
head -9.49441 -4.04002 5.47134
rclavicle 3.26007e-014 1.70955e-014
rhumerus 35.729 -1.13668 -90.7077
rradius 30.8097
rwrist 41.9491
rhand -63.7802 17.4831
rfingers 7.12502
rthumb -35.7427 -8.89622
lclavicle 3.26007e-014 1.70955e-014
lhumerus 31.5156 -13.6291 69.1629
lradius 38.987
lwrist -9.92203
lhand -21.0785 0.202561
lfingers 7.12502
lthumb 5.29851 30.1163
rfemur -71.444 -18.3097 25.2111
rtibia 127.692
rfoot 154.643 -164.868
rtoes 20.391
lfemur -93.7485 0.369092 -12.7663
ltibia 133.956
lfoot 2.19512 -17.8896
ltoes 21.9936
555
root -1.01044 9.22996 -1.90824 -128.053 -7.34285 -195.658
lowerback 25.8762 -0.167403 -3.24067
upperback 11.8266 -3.30532 -2.08994
thorax -1.21692 -2.50549 0.458744
lowerneck 5.48085 -3.77121 -0.211876
upperneck -28.3689 -3.44309 13.8141
head -9.55404 -4.10923 5.41517
rclavicle -7.4743e-014 1.66979e-014
rhumerus 36.4058 -1.84296 -90.8511
rradius 30.2303
rwrist 42.0963
rhand -63.6947 17.3613
rfingers 7.12502
rthumb -35.6616 -9.03763
lclavicle -7.4743e-014 1.66979e-014
lhumerus 32.8151 -14.3733 68.3577
lradius 38.4103
lwrist -9.9158
lhand -20.4765 0.789492
lfingers 7.12502
lthumb 5.87982 30.6879
rfemur -71.1708 -18.5446 25.919
rtibia 127.747
rfoot 154.784 -165.124
rtoes 20.9124
lfemur -97.3306 2.40876 -13.7
ltibia 135.615
lfoot -0.0686455 -18.8607
ltoes 27.7766
